<svg xmlns="http://www.w3.org/2000/svg" viewBox="0 0 16 13" width="16" height="13">
	<style>
		tspan { white-space:pre }
		.shp0 { fill: #262626 } 
	</style>
	<path id="Icon" class="shp0" d="M9.44 8.14C10.41 7.76 11.17 7.23 11.73 6.55C12.29 5.88 12.57 5.15 12.57 4.36C12.57 3.57 12.29 2.85 11.73 2.17C11.17 1.5 10.41 0.97 9.44 0.58C8.47 0.2 7.42 0 6.29 0C5.15 0 4.1 0.2 3.13 0.59C2.16 0.97 1.4 1.5 0.84 2.17C0.28 2.85 0 3.57 0 4.36C0 5.04 0.21 5.68 0.63 6.27C1.06 6.87 1.64 7.37 2.38 7.78C2.32 7.92 2.25 8.04 2.19 8.16C2.13 8.27 2.06 8.38 1.97 8.49C1.88 8.59 1.82 8.67 1.77 8.73C1.72 8.79 1.64 8.88 1.54 8.98C1.43 9.09 1.36 9.16 1.33 9.2C1.33 9.19 1.32 9.2 1.29 9.24C1.27 9.27 1.26 9.28 1.25 9.28C1.25 9.27 1.24 9.29 1.22 9.32C1.2 9.35 1.19 9.37 1.19 9.37L1.17 9.41C1.16 9.43 1.15 9.44 1.15 9.46C1.14 9.48 1.14 9.5 1.14 9.52C1.14 9.54 1.15 9.55 1.15 9.57C1.16 9.65 1.2 9.7 1.25 9.75C1.31 9.8 1.37 9.82 1.44 9.82L1.46 9.82C1.76 9.78 2.02 9.73 2.23 9.68C3.15 9.45 3.98 9.09 4.71 8.59C5.25 8.68 5.77 8.73 6.29 8.73C7.42 8.73 8.47 8.53 9.44 8.14ZM4.45 7.43L4.05 7.7C3.89 7.8 3.7 7.92 3.5 8.03L3.81 7.31L2.95 6.84C2.38 6.52 1.93 6.14 1.62 5.71C1.3 5.28 1.14 4.83 1.14 4.36C1.14 3.78 1.38 3.24 1.84 2.74C2.31 2.23 2.94 1.83 3.73 1.54C4.52 1.24 5.37 1.09 6.29 1.09C7.2 1.09 8.05 1.24 8.84 1.54C9.63 1.83 10.26 2.23 10.73 2.74C11.2 3.24 11.43 3.78 11.43 4.36C11.43 4.94 11.2 5.49 10.73 5.99C10.26 6.5 9.63 6.9 8.84 7.19C8.05 7.49 7.2 7.64 6.29 7.64C5.84 7.64 5.38 7.6 4.92 7.52L4.45 7.43ZM15.37 8.46C15.79 7.87 16 7.23 16 6.55C16 5.85 15.78 5.19 15.33 4.59C14.88 3.98 14.28 3.47 13.51 3.07C13.65 3.49 13.71 3.93 13.71 4.36C13.71 5.13 13.51 5.85 13.12 6.53C12.72 7.21 12.15 7.81 11.4 8.34C10.71 8.81 9.93 9.18 9.04 9.44C8.16 9.69 7.24 9.82 6.29 9.82C6.11 9.82 5.85 9.81 5.5 9.78C6.7 10.53 8.1 10.91 9.71 10.91C10.23 10.91 10.75 10.86 11.29 10.77C12.02 11.27 12.85 11.64 13.77 11.86C13.98 11.92 14.24 11.96 14.54 12C14.61 12.01 14.67 11.99 14.73 11.94C14.79 11.9 14.83 11.83 14.85 11.75C14.85 11.72 14.85 11.7 14.86 11.7C14.87 11.7 14.86 11.68 14.85 11.64C14.84 11.61 14.83 11.59 14.83 11.59L14.81 11.55C14.81 11.54 14.8 11.52 14.78 11.5C14.77 11.48 14.75 11.47 14.75 11.46C14.74 11.45 14.72 11.44 14.71 11.42C14.69 11.4 14.68 11.38 14.67 11.38C14.64 11.34 14.57 11.27 14.46 11.17C14.36 11.06 14.28 10.97 14.23 10.91C14.18 10.85 14.12 10.77 14.03 10.67C13.95 10.56 13.87 10.45 13.81 10.34C13.75 10.23 13.68 10.1 13.63 9.96C14.36 9.55 14.94 9.05 15.37 8.46Z" />
</svg>