<svg xmlns="http://www.w3.org/2000/svg" viewBox="0 0 27 21" width="27" height="21">
	<style>
		tspan { white-space:pre }
		.shp0 { fill: #ffffff } 
	</style>
	<path id="Forma 1" class="shp0" d="M25.28 1L2.72 1C1.77 1 1 1.75 1 2.67L1 19.33C1 20.25 1.77 21 2.72 21L25.28 21C26.23 21 27 20.25 27 19.33L27 2.67C27 1.75 26.23 1 25.28 1ZM2.72 2.43L25.28 2.43C25.42 2.43 25.53 2.54 25.53 2.67L25.53 13.76L21.6 8.86C21.31 8.5 20.88 8.28 20.43 8.26C19.97 8.25 19.53 8.43 19.21 8.77L14.11 14.25C13.99 14.39 13.72 14.42 13.56 14.33L9.37 11.76C8.65 11.32 7.6 11.37 6.92 11.87L2.47 15.16L2.47 2.67C2.47 2.54 2.58 2.43 2.72 2.43ZM25.28 19.57L2.72 19.57C2.58 19.57 2.47 19.46 2.47 19.33L2.47 16.96L7.81 13C8 12.87 8.39 12.85 8.58 12.97L12.78 15.54C13.54 16 14.6 15.86 15.2 15.21L20.3 9.73C20.33 9.7 20.36 9.69 20.37 9.69C20.39 9.69 20.41 9.7 20.44 9.74L25.53 16.09L25.53 19.33C25.53 19.46 25.42 19.57 25.28 19.57ZM11.86 10.67C13.3 10.67 14.47 9.54 14.47 8.14C14.47 6.75 13.3 5.61 11.86 5.61C10.43 5.61 9.26 6.75 9.26 8.14C9.26 9.54 10.43 10.67 11.86 10.67ZM11.86 7.04C12.49 7.04 13 7.54 13 8.14C13 8.75 12.49 9.25 11.86 9.25C11.24 9.25 10.73 8.75 10.73 8.14C10.73 7.54 11.24 7.04 11.86 7.04Z" />
</svg>